{"title":"The World God Only Knows (Ep 1-12) 480p [Cursator]","uid":7844347,"size":882420616,"categoryP":"video","categoryS":"tv_shows","magnet":"?xt=urn:btih:ef039c0fe96fe0b0b410d76a5ff5d459894deae3&amp;dn=The+World+God+Only+Knows+%28Ep+1-12%29+480p+%5BCursator%5D&amp;tr=udp%3A%2F%2Ftracker.openbittorrent.com%3A80&amp;tr=udp%3A%2F%2Fopen.demonii.com%3A1337&amp;tr=udp%3A%2F%2Ftracker.coppersurfer.tk%3A6969&amp;tr=udp%3A%2F%2Fexodus.desync.com%3A6969","seeders":0,"leechers":1,"uploader":"Cursator","files":-1,"time":1353430607,"description":"All The Episodes of The World God Only Knows aka Kami Nomi zo Shiru Sekai (Ep 1-12) at 480p Video Quality :)\n\nPlease seed after you download.\n\n--------------------------------------------------------------------------------\n\nCover\n--------------------------------------------------------------------------------\n      &lt;a href=&quot;\nhttp://img163.imageshack.us/img163/1372/theworldonlygodknowscur.jpg&quot; rel=&quot;nofollow&quot; target=&quot;_NEW&quot;&gt;\nhttp://img163.imageshack.us/img163/1372/theworldonlygodknowscur.jpg&lt;/a&gt;\n--------------------------------------------------------------------------------\n\nInfo\n---------------------------------------------------------------------------------\n\nGeneral\n--------\n\nFormat                                   : MPEG-4\nFormat profile                           : Base Media\nCodec ID                                 : isom\nFile size                                : 73.5 MiB\nDuration                                 : 23mn 34s\nOverall bit rate mode                    : Variable\nOverall bit rate                         : 436 Kbps\n\nVideo\n---------------------------------------\n\nID                                       : 1\nFormat                                   : AVC\nFormat/Info                              : Advanced Video Codec\nFormat profile                           : &lt;a class=&quot;__cf_email__&quot; href=&quot;/cdn-cgi/l/email-protection&quot; data-cfemail=&quot;a3ebcac4cbe3ef908d93&quot;&gt;[email&amp;#160;protected]&lt;/a&gt;&lt;script cf-hash='f9e31' type=&quot;text/javascript&quot;&gt;\n/* &lt;![CDATA[ */!function(){try{var t=&quot;currentScript&quot;in document?document.currentScript:function(){for(var t=document.getElementsByTagName(&quot;script&quot;),e=t.length;e--;)if(t[e].getAttribute(&quot;cf-hash&quot;))return t[e]}();if(t&amp;&amp;t.previousSibling){var e,r,n,i,c=t.previousSibling,a=c.getAttribute(&quot;data-cfemail&quot;);if(a){for(e=&quot;&quot;,r=parseInt(a.substr(0,2),16),n=2;a.length-n;n+=2)i=parseInt(a.substr(n,2),16)^r,e+=String.fromCharCode(i);e=document.createTextNode(e),c.parentNode.replaceChild(e,c)}}}catch(u){}}();/* ]]&gt; */&lt;/script&gt;\nFormat settings, CABAC                   : Yes\nFormat settings, ReFrames                : 4 frames\nCodec ID                                 : avc1\nCodec ID/Info                            : Advanced Video Coding\nDuration                                 : 23mn 34s\nBit rate                                 : 369 Kbps\nMaximum bit rate                         : 3 659 Kbps\nWidth                                    : 640 pixels\nHeight                                   : 360 pixels\nDisplay aspect ratio                     : 16:9\nFrame rate mode                          : Constant\nFrame rate                               : 23.976 fps\nColor space                              : YUV\nChroma subsampling                       : 4:2:0\nBit depth                                : 8 bits\nScan type                                : Progressive\nBits/(Pixel*Frame)                       : 0.067\nStream size                              : 62.2 MiB (85%)\nWriting library                          : x264 core 119 r2106 07efeb4\n\nAudio\n----------------------------------\n\nID                                       : 2\nFormat                                   : AAC\nFormat/Info                              : Advanced Audio Codec\nFormat profile                           : LC\nCodec ID                                 : 40\nDuration                                 : 23mn 34s\nBit rate mode                            : Variable\nBit rate                                 : 64.0 Kbps\nMaximum bit rate                         : 74.2 Kbps\nChannel(s)                               : 2 channels\nChannel positions                        : Front: L R\nSampling rate                            : 44.1 KHz\nCompression mode                         : Lossy\nDelay relative to video                  : 83ms\nStream size                              : 10.8 MiB (15%)\n\n----------------------------------------------------------------------------------\n\nScreenshots\n----------------------------------------------------------------------------------\n            &lt;a href=&quot;\nhttp://img855.imageshack.us/img855/8320/59835879.png&quot; rel=&quot;nofollow&quot; target=&quot;_NEW&quot;&gt;\nhttp://img855.imageshack.us/img855/8320/59835879.png&lt;/a&gt;\n            &lt;a href=&quot;\nhttp://img607.imageshack.us/img607/709/98464039.png&quot; rel=&quot;nofollow&quot; target=&quot;_NEW&quot;&gt;\nhttp://img607.imageshack.us/img607/709/98464039.png&lt;/a&gt;\n            &lt;a href=&quot;\nhttp://img842.imageshack.us/img842/826/28649289.png&quot; rel=&quot;nofollow&quot; target=&quot;_NEW&quot;&gt;\nhttp://img842.imageshack.us/img842/826/28649289.png&lt;/a&gt;\n            &lt;a href=&quot;\nhttp://img829.imageshack.us/img829/1342/15843194.png&quot; rel=&quot;nofollow&quot; target=&quot;_NEW&quot;&gt;\nhttp://img829.imageshack.us/img829/1342/15843194.png&lt;/a&gt;\n            &lt;a href=&quot;\nhttp://img534.imageshack.us/img534/4074/64105582.png&quot; rel=&quot;nofollow&quot; target=&quot;_NEW&quot;&gt;\nhttp://img534.imageshack.us/img534/4074/64105582.png&lt;/a&gt;\n   \n\n----------------------------------------------------------------------------------\n\nStory\n----------------------------------------------------------------------------------\n\nDating sim master Keima Katsuragi wants nothing more than to immerse himself in the 2D world, chasing digital girlfriends. But when the so-called &quot;Capturing God&quot; answers a mysterious email from an unknown sender, Keima finds himself chasing down real-life ladies in an attempt to help the peppy demon Elsie de Lute Irma capture &quot;lost souls&quot; escaped from the depths of hell. Now, lest the explosive collar around his neck detonate, Keima must convince various girls to fall in love with him in order to scare out the souls hiding in their hearts.\n\n----------------------------------------------------------------------------------\n\nThank you for downloading. \n\nEnjoy Watching :)\t\t\t\t\n\t\t\t\t","torrent":{"xt":"urn:btih:ef039c0fe96fe0b0b410d76a5ff5d459894deae3","amp;dn":"The+World+God+Only+Knows+%28Ep+1-12%29+480p+%5BCursator%5D","amp;tr":["udp%3A%2F%2Ftracker.openbittorrent.com%3A80","udp%3A%2F%2Fopen.demonii.com%3A1337","udp%3A%2F%2Ftracker.coppersurfer.tk%3A6969","udp%3A%2F%2Fexodus.desync.com%3A6969"],"infoHash":"ef039c0fe96fe0b0b410d76a5ff5d459894deae3","infoHashBuffer":{"type":"Buffer","data":[239,3,156,15,233,111,224,176,180,16,215,106,95,245,212,89,137,77,234,227]},"announce":[],"urlList":[]}}